# xmcd CD database file
#
# Track frame offsets:
#	150
#	11640
#	23867
#	36414
#	50000
#	64263
#	78105
#	92253
#	106304
#	118193
#	129746
#	141098
#	154823
#	168618
#	182363
#	193756
#	207698
#	219568
#	232600
#	244782
#	257194
#	271195
#	282536
#	293386
#	305676
#	317639
#
# Disc length: 4430 seconds
#
# Revision: 0
# Processed by: cddbd v1.5.2PL0 Copyright (c) Steve Scherf et al.
# Submitted via: CDex 1.51
#
DISCID=7b114c1a
DTITLE=Ella Fitzgerald - Ella Fitzgerald Collection
DYEAR=2012
DGENRE=Jazz
TTITLE0=Baby Won't You Please Come Home?
TTITLE1=Deedle-De-Dum
TTITLE2=Shake Down The Stars
TTITLE3=Gulf Coast Blues
TTITLE4=Five O'clock Whistle
TTITLE5=So Long
TTITLE6=Louisville
TTITLE7=Taking A Chance On Love
TTITLE8=I'm The Loneliest Gal In Town
TTITLE9=Three Little Words
TTITLE10=Hello Ma! I Done It Again
TTITLE11=The One I Love (Belongs To Sombody Else)
TTITLE12=Keep Cool, Fool
TTITLE13=My Man
TTITLE14=I Can't Believe That You're In Love With Me
TTITLE15=I Must Have That Man
TTITLE16=When My Sugar Walks Down The Street
TTITLE17=I Got It Bad (And That Ain't Good)
TTITLE18=Melinda The Mousie
TTITLE19=Can't Help Lovin' Dat Man
TTITLE20=Into Each Life Some Rain Must Fall
TTITLE21=It's Only A Paper Moon
TTITLE22=Flying Home
TTITLE23=Stone Cold Dead In The Market
TTITLE24=Petootie Pie
TTITLE25=That's Rich
EXTD=YEAR: 2012
EXTT0=
EXTT1=
EXTT2=
EXTT3=
EXTT4=
EXTT5=
EXTT6=
EXTT7=
EXTT8=
EXTT9=
EXTT10=
EXTT11=
EXTT12=
EXTT13=
EXTT14=
EXTT15=
EXTT16=
EXTT17=
EXTT18=
EXTT19=
EXTT20=
EXTT21=
EXTT22=
EXTT23=
EXTT24=
EXTT25=
PLAYORDER=
